<mxfile host="65bd71144e">
    <diagram id="xTnFaok4tp1wI_dZTb3r" name="第 1 页">
        <mxGraphModel dx="991" dy="645" grid="1" gridSize="10" guides="1" tooltips="1" connect="1" arrows="1" fold="1" page="1" pageScale="1" pageWidth="827" pageHeight="1169" math="1" shadow="0">
            <root>
                <mxCell id="0"/>
                <mxCell id="1" parent="0"/>
                <mxCell id="44" value="&lt;font style=&quot;font-size: 19px;&quot; face=&quot;Times New Roman&quot;&gt;(a) insert&lt;/font&gt;" style="rounded=0;whiteSpace=wrap;html=1;container=1;verticalAlign=bottom;strokeColor=none;fontFamily=SimSun;fontSize=19;fillColor=none;" parent="1" vertex="1">
                    <mxGeometry x="40" y="290" width="380" height="200" as="geometry">
                        <mxRectangle x="177" y="190" width="50" height="40" as="alternateBounds"/>
                    </mxGeometry>
                </mxCell>
                <mxCell id="29" value="" style="group;fontSize=19;" parent="44" vertex="1" connectable="0">
                    <mxGeometry x="10" width="360" height="165" as="geometry"/>
                </mxCell>
                <mxCell id="2" value="" style="rounded=0;whiteSpace=wrap;html=1;fontFamily=Times New Roman;fontSize=19;" parent="29" vertex="1">
                    <mxGeometry x="40" y="90" width="40" height="40" as="geometry"/>
                </mxCell>
                <mxCell id="3" value="" style="rounded=0;whiteSpace=wrap;html=1;fontFamily=Times New Roman;fontSize=19;" parent="29" vertex="1">
                    <mxGeometry x="80" y="90" width="40" height="40" as="geometry"/>
                </mxCell>
                <mxCell id="4" value="" style="rounded=0;whiteSpace=wrap;html=1;fontFamily=Times New Roman;fontSize=19;" parent="29" vertex="1">
                    <mxGeometry x="280" y="90" width="40" height="40" as="geometry"/>
                </mxCell>
                <mxCell id="5" value="" style="rounded=0;whiteSpace=wrap;html=1;fontFamily=Times New Roman;fontSize=19;" parent="29" vertex="1">
                    <mxGeometry x="320" y="90" width="40" height="40" as="geometry"/>
                </mxCell>
                <mxCell id="6" value="&lt;font style=&quot;font-size: 19px;&quot;&gt;x&lt;/font&gt;" style="rounded=0;whiteSpace=wrap;html=1;fontFamily=Times New Roman;fontSize=19;" parent="29" vertex="1">
                    <mxGeometry x="160" y="30" width="40" height="40" as="geometry"/>
                </mxCell>
                <mxCell id="7" value="" style="rounded=0;whiteSpace=wrap;html=1;fontFamily=Times New Roman;fontSize=19;" parent="29" vertex="1">
                    <mxGeometry x="200" y="30" width="40" height="40" as="geometry"/>
                </mxCell>
                <mxCell id="8" value="" style="group;fontFamily=Times New Roman;fontSize=19;" parent="29" vertex="1" connectable="0">
                    <mxGeometry x="190" y="100" width="20" height="20" as="geometry"/>
                </mxCell>
                <mxCell id="9" value="" style="endArrow=none;html=1;fontFamily=Times New Roman;fontSize=19;" parent="8" edge="1">
                    <mxGeometry width="50" height="50" relative="1" as="geometry">
                        <mxPoint y="20" as="sourcePoint"/>
                        <mxPoint x="20" as="targetPoint"/>
                    </mxGeometry>
                </mxCell>
                <mxCell id="10" value="" style="endArrow=none;html=1;fontFamily=Times New Roman;fontSize=19;" parent="8" edge="1">
                    <mxGeometry width="50" height="50" relative="1" as="geometry">
                        <mxPoint as="sourcePoint"/>
                        <mxPoint x="20" y="20" as="targetPoint"/>
                    </mxGeometry>
                </mxCell>
                <mxCell id="11" value="&lt;font style=&quot;font-size: 19px;&quot;&gt;pos&lt;/font&gt;" style="text;html=1;align=center;verticalAlign=middle;resizable=0;points=[];autosize=1;strokeColor=none;fillColor=none;fontFamily=Times New Roman;fontSize=19;" parent="29" vertex="1">
                    <mxGeometry x="55" y="55" width="50" height="40" as="geometry"/>
                </mxCell>
                <mxCell id="12" style="edgeStyle=none;html=1;entryX=0;entryY=0.5;entryDx=0;entryDy=0;dashed=1;fontFamily=Times New Roman;fontSize=19;" parent="29" target="4" edge="1">
                    <mxGeometry relative="1" as="geometry">
                        <mxPoint x="100" y="110" as="sourcePoint"/>
                    </mxGeometry>
                </mxCell>
                <mxCell id="13" value="" style="endArrow=classic;html=1;fontFamily=Times New Roman;entryX=0;entryY=0.5;entryDx=0;entryDy=0;fontSize=19;" parent="29" target="6" edge="1">
                    <mxGeometry width="50" height="50" relative="1" as="geometry">
                        <mxPoint x="100" y="110" as="sourcePoint"/>
                        <mxPoint x="230" y="100" as="targetPoint"/>
                    </mxGeometry>
                </mxCell>
                <mxCell id="14" value="" style="endArrow=classic;html=1;fontFamily=Times New Roman;entryX=0;entryY=0;entryDx=0;entryDy=0;fontSize=19;" parent="29" target="4" edge="1">
                    <mxGeometry width="50" height="50" relative="1" as="geometry">
                        <mxPoint x="220" y="50" as="sourcePoint"/>
                        <mxPoint x="230" y="100" as="targetPoint"/>
                    </mxGeometry>
                </mxCell>
                <mxCell id="15" value="new node" style="text;html=1;align=center;verticalAlign=middle;resizable=0;points=[];autosize=1;strokeColor=none;fillColor=none;fontFamily=Times New Roman;fontSize=19;" parent="29" vertex="1">
                    <mxGeometry x="150" width="100" height="40" as="geometry"/>
                </mxCell>
                <mxCell id="16" value="&lt;font face=&quot;SimSun&quot; style=&quot;font-size: 19px;&quot;&gt;第&lt;/font&gt;\((i-1)\)&lt;font face=&quot;SimSun&quot; style=&quot;font-size: 19px;&quot;&gt;个结点&lt;/font&gt;" style="text;html=1;align=center;verticalAlign=middle;resizable=0;points=[];autosize=1;strokeColor=none;fillColor=none;fontFamily=Times New Roman;fontSize=19;" parent="29" vertex="1">
                    <mxGeometry y="125" width="160" height="40" as="geometry"/>
                </mxCell>
                <mxCell id="45" value="&lt;font style=&quot;font-size: 19px;&quot; face=&quot;Times New Roman&quot;&gt;(b) remove&lt;/font&gt;" style="rounded=0;whiteSpace=wrap;html=1;container=1;verticalAlign=bottom;strokeColor=none;fontFamily=SimSun;fontSize=19;fillColor=none;" parent="1" vertex="1">
                    <mxGeometry x="420" y="290" width="380" height="200" as="geometry">
                        <mxRectangle x="177" y="190" width="50" height="40" as="alternateBounds"/>
                    </mxGeometry>
                </mxCell>
                <mxCell id="42" value="" style="group;fontSize=19;" parent="45" vertex="1" connectable="0">
                    <mxGeometry x="10" y="50" width="360" height="115" as="geometry"/>
                </mxCell>
                <mxCell id="30" value="" style="rounded=0;whiteSpace=wrap;html=1;fontFamily=Times New Roman;fontSize=19;" parent="42" vertex="1">
                    <mxGeometry x="40" y="40" width="40" height="40" as="geometry"/>
                </mxCell>
                <mxCell id="31" value="" style="rounded=0;whiteSpace=wrap;html=1;fontFamily=Times New Roman;fontSize=19;" parent="42" vertex="1">
                    <mxGeometry x="80" y="40" width="40" height="40" as="geometry"/>
                </mxCell>
                <mxCell id="32" value="" style="rounded=0;whiteSpace=wrap;html=1;dashed=1;fontFamily=Times New Roman;fontSize=19;" parent="42" vertex="1">
                    <mxGeometry x="160" y="40" width="40" height="40" as="geometry"/>
                </mxCell>
                <mxCell id="33" value="" style="rounded=0;whiteSpace=wrap;html=1;dashed=1;fontFamily=Times New Roman;fontSize=19;" parent="42" vertex="1">
                    <mxGeometry x="200" y="40" width="40" height="40" as="geometry"/>
                </mxCell>
                <mxCell id="34" value="&lt;font style=&quot;font-size: 19px;&quot;&gt;pos&lt;/font&gt;" style="text;html=1;align=center;verticalAlign=middle;resizable=0;points=[];autosize=1;strokeColor=none;fillColor=none;fontFamily=Times New Roman;fontSize=19;" parent="42" vertex="1">
                    <mxGeometry x="55" y="5" width="50" height="40" as="geometry"/>
                </mxCell>
                <mxCell id="35" style="edgeStyle=none;html=1;entryX=0;entryY=0.5;entryDx=0;entryDy=0;dashed=1;fontFamily=Times New Roman;fontSize=19;" parent="42" target="32" edge="1">
                    <mxGeometry relative="1" as="geometry">
                        <mxPoint x="100" y="60" as="sourcePoint"/>
                    </mxGeometry>
                </mxCell>
                <mxCell id="36" value="&lt;font face=&quot;SimSun&quot; style=&quot;font-size: 19px;&quot;&gt;第&lt;/font&gt;\((i-1)\)&lt;font face=&quot;SimSun&quot; style=&quot;font-size: 19px;&quot;&gt;个结点&lt;/font&gt;" style="text;html=1;align=center;verticalAlign=middle;resizable=0;points=[];autosize=1;strokeColor=none;fillColor=none;fontFamily=Times New Roman;fontSize=19;" parent="42" vertex="1">
                    <mxGeometry y="75" width="160" height="40" as="geometry"/>
                </mxCell>
                <mxCell id="37" value="" style="rounded=0;whiteSpace=wrap;html=1;fontFamily=Times New Roman;fontSize=19;" parent="42" vertex="1">
                    <mxGeometry x="280" y="40" width="40" height="40" as="geometry"/>
                </mxCell>
                <mxCell id="38" value="" style="rounded=0;whiteSpace=wrap;html=1;fontFamily=Times New Roman;fontSize=19;" parent="42" vertex="1">
                    <mxGeometry x="320" y="40" width="40" height="40" as="geometry"/>
                </mxCell>
                <mxCell id="39" style="edgeStyle=none;html=1;entryX=0;entryY=0.5;entryDx=0;entryDy=0;fontFamily=Times New Roman;fontSize=19;dashed=1;" parent="42" target="37" edge="1">
                    <mxGeometry relative="1" as="geometry">
                        <mxPoint x="220" y="60" as="sourcePoint"/>
                    </mxGeometry>
                </mxCell>
                <mxCell id="40" value="" style="curved=1;endArrow=classic;html=1;jumpStyle=arc;entryX=0.5;entryY=0;entryDx=0;entryDy=0;fontFamily=Times New Roman;fontSize=19;" parent="42" target="37" edge="1">
                    <mxGeometry width="50" height="50" relative="1" as="geometry">
                        <mxPoint x="100" y="60" as="sourcePoint"/>
                        <mxPoint x="270" y="80" as="targetPoint"/>
                        <Array as="points">
                            <mxPoint x="140"/>
                            <mxPoint x="260"/>
                        </Array>
                    </mxGeometry>
                </mxCell>
                <mxCell id="41" value="删除结点" style="text;html=1;align=center;verticalAlign=middle;resizable=0;points=[];autosize=1;strokeColor=none;fillColor=none;fontFamily=SimSun;fontSize=19;" parent="42" vertex="1">
                    <mxGeometry x="145" y="5" width="100" height="40" as="geometry"/>
                </mxCell>
            </root>
        </mxGraphModel>
    </diagram>
</mxfile>